HIERARCHY
ROOT Hips
{
    OFFSET 0.0 0.0 0.0
    CHANNELS 6 Xposition Yposition Zposition Zrotation Xrotation Yrotation
    JOINT Chest
    {
        OFFSET 0.0 10.0 0.0
        CHANNELS 3 Zrotation Xrotation Yrotation
        JOINT Neck
        {
            OFFSET 0.0 10.0 0.0
            CHANNELS 3 Zrotation Xrotation Yrotation
            JOINT Head
            {
                OFFSET 0.0 5.0 0.0
                CHANNELS 3 Zrotation Xrotation Yrotation
                End Site
                {
                    OFFSET 0.0 5.0 0.0
                }
            }
        }
        JOINT LeftShoulder
        {
            OFFSET -5.0 8.0 0.0
            CHANNELS 3 Zrotation Xrotation Yrotation
            JOINT LeftElbow
            {
                OFFSET -10.0 0.0 0.0
                CHANNELS 3 Zrotation Xrotation Yrotation
                JOINT LeftWrist
                {
                    OFFSET -10.0 0.0 0.0
                    CHANNELS 3 Zrotation Xrotation Yrotation
                    End Site
                    {
                        OFFSET -3.0 0.0 0.0
                    }
                }
            }
        }
        JOINT RightShoulder
        {
            OFFSET 5.0 8.0 0.0
            CHANNELS 3 Zrotation Xrotation Yrotation
            JOINT RightElbow
            {
                OFFSET 10.0 0.0 0.0
                CHANNELS 3 Zrotation Xrotation Yrotation
                JOINT RightWrist
                {
                    OFFSET 10.0 0.0 0.0
                    CHANNELS 3 Zrotation Xrotation Yrotation
                    End Site
                    {
                        OFFSET 3.0 0.0 0.0
                    }
                }
            }
        }
    }
    JOINT LeftHip
    {
        OFFSET -5.0 0.0 0.0
        CHANNELS 3 Zrotation Xrotation Yrotation
        JOINT LeftKnee
        {
            OFFSET 0.0 -15.0 0.0
            CHANNELS 3 Zrotation Xrotation Yrotation
            JOINT LeftAnkle
            {
                OFFSET 0.0 -15.0 0.0
                CHANNELS 3 Zrotation Xrotation Yrotation
                End Site
                {
                    OFFSET 0.0 -3.0 5.0
                }
            }
        }
    }
    JOINT RightHip
    {
        OFFSET 5.0 0.0 0.0
        CHANNELS 3 Zrotation Xrotation Yrotation
        JOINT RightKnee
        {
            OFFSET 0.0 -15.0 0.0
            CHANNELS 3 Zrotation Xrotation Yrotation
            JOINT RightAnkle
            {
                OFFSET 0.0 -15.0 0.0
                CHANNELS 3 Zrotation Xrotation Yrotation
                End Site
                {
                    OFFSET 0.0 -3.0 5.0
                }
            }
        }
    }
}

MOTION
Frames: 12
Frame Time: 0.03333333333333333
-16.341266 9.354123 -0.009830 0.000000 0.000000 14.227994 0.000000 54.709815 0.206691 0.000000 0.000000 0.000000 0.000000 13.440307 0.285674 0.000000 0.000000 0.000000 0.000000 -62.318856 160.628952 0.000000 -15.482733 1.303526 0.000000 0.000000 0.000000 0.000000 -51.782578 -166.700017 0.000000 -36.185653 -9.276955 0.000000 0.000000 0.000000 0.000000 -79.819637 -148.718009 0.000000 -29.396490 -177.187914 0.000000 0.000000 0.000000 0.000000 -83.680410 145.078669 0.000000 -34.289301 -179.480495
-18.126367 9.691089 -0.007099 0.000000 0.000000 12.304808 0.000000 44.151035 0.802033 0.000000 0.000000 0.000000 0.000000 14.516155 1.240161 0.000000 0.000000 0.000000 0.000000 -43.119311 171.583967 0.000000 -29.171934 2.110737 0.000000 0.000000 0.000000 0.000000 -48.321333 -167.782552 0.000000 -44.854096 -13.412693 0.000000 0.000000 0.000000 0.000000 -72.911615 -162.544237 0.000000 -33.043456 -177.264712 0.000000 0.000000 0.000000 0.000000 -82.581483 149.733812 0.000000 -34.448907 -179.493229
-19.777698 9.345049 0.009933 0.000000 0.000000 11.791911 0.000000 40.757505 1.250617 0.000000 0.000000 0.000000 0.000000 16.692013 1.405601 0.000000 0.000000 0.000000 0.000000 -36.396866 175.440549 0.000000 -31.033176 1.068397 0.000000 0.000000 0.000000 0.000000 -43.640971 -170.396877 0.000000 -55.249013 -20.616027 0.000000 0.000000 0.000000 0.000000 -61.035581 -171.337586 0.000000 -20.332159 -179.020703 0.000000 0.000000 0.000000 0.000000 -67.345163 175.683931 0.000000 -21.404335 -179.205080
-20.942386 9.373661 0.010062 0.000000 0.000000 9.873637 0.000000 39.229468 0.410800 0.000000 0.000000 0.000000 0.000000 12.465692 1.229934 0.000000 0.000000 0.000000 0.000000 -30.027156 176.272701 0.000000 -45.999921 1.305800 0.000000 0.000000 0.000000 0.000000 -34.737963 -172.764689 0.000000 -70.804678 -33.474787 0.000000 0.000000 0.000000 0.000000 -60.636826 -172.112315 0.000000 -22.061977 -179.131785 0.000000 0.000000 0.000000 0.000000 -71.093552 -176.994694 0.000000 -20.357606 -178.955223
-23.016880 9.092200 0.007124 0.000000 0.000000 9.209469 0.000000 38.940534 -0.067965 0.000000 0.000000 0.000000 0.000000 15.268214 0.308064 0.000000 0.000000 0.000000 0.000000 -30.789571 174.895091 0.000000 -44.653169 2.616991 0.000000 0.000000 0.000000 0.000000 -45.312230 -169.636267 0.000000 -57.236754 -9.329782 0.000000 0.000000 0.000000 0.000000 -59.041857 -174.167169 0.000000 -26.986088 179.556190 0.000000 0.000000 0.000000 0.000000 -54.498717 179.887698 0.000000 -19.017892 -178.522494
-24.440511 7.085404 -0.005501 0.000000 0.000000 11.684801 0.000000 46.679189 -1.546414 0.000000 0.000000 0.000000 0.000000 15.327415 0.495763 0.000000 0.000000 0.000000 0.000000 -36.495489 173.462946 0.000000 -35.118981 1.572427 0.000000 0.000000 0.000000 0.000000 -56.043725 -167.982840 0.000000 -46.379702 -2.508390 0.000000 0.000000 0.000000 0.000000 -58.435603 -176.246930 0.000000 -24.145116 178.753687 0.000000 0.000000 0.000000 0.000000 -45.187827 178.639793 0.000000 -14.310349 -179.937707
-25.148489 7.168528 -0.009043 0.000000 0.000000 10.391964 0.000000 46.537242 -1.731085 0.000000 0.000000 0.000000 0.000000 14.701595 0.306850 0.000000 0.000000 0.000000 0.000000 -38.036183 172.759063 0.000000 -31.870443 1.241894 0.000000 0.000000 0.000000 0.000000 -57.214219 -167.691955 0.000000 -45.682781 -1.643484 0.000000 0.000000 0.000000 0.000000 -66.307392 -175.556065 0.000000 -28.504388 178.497402 0.000000 0.000000 0.000000 0.000000 -40.088567 178.338553 0.000000 -12.676962 179.834335
-25.444304 7.293065 -0.013882 0.000000 0.000000 10.985803 0.000000 53.039218 -3.095339 0.000000 0.000000 0.000000 0.000000 15.533226 -0.129506 0.000000 0.000000 0.000000 0.000000 -47.176417 171.527260 0.000000 -22.229926 1.206805 0.000000 0.000000 0.000000 0.000000 -50.866982 -170.597339 0.000000 -43.437808 -1.342431 0.000000 0.000000 0.000000 0.000000 -68.788907 -176.220142 0.000000 -22.069860 179.325821 0.000000 0.000000 0.000000 0.000000 -48.864388 178.815264 0.000000 -14.289318 -179.756614
-25.519897 7.972874 -0.003483 0.000000 0.000000 12.234510 0.000000 56.805103 -3.234844 0.000000 0.000000 0.000000 0.000000 15.841014 0.013202 0.000000 0.000000 0.000000 0.000000 -49.264418 169.914054 0.000000 -22.748318 0.852700 0.000000 0.000000 0.000000 0.000000 -49.621697 -171.145848 0.000000 -41.177744 -2.296265 0.000000 0.000000 0.000000 0.000000 -65.268498 -179.415122 0.000000 -13.535988 179.749507 0.000000 0.000000 0.000000 0.000000 -50.467873 179.125104 0.000000 -11.685300 179.641620
-25.129658 8.324092 -0.005682 0.000000 0.000000 11.951356 0.000000 52.651089 -2.278905 0.000000 0.000000 0.000000 0.000000 15.437111 0.149510 0.000000 0.000000 0.000000 0.000000 -41.615789 172.769174 0.000000 -26.192990 -0.058504 0.000000 0.000000 0.000000 0.000000 -48.429166 -169.943136 0.000000 -43.868486 -2.819702 0.000000 0.000000 0.000000 0.000000 -53.314785 -179.659835 0.000000 -13.377032 179.831366 0.000000 0.000000 0.000000 0.000000 -60.580566 -179.819272 0.000000 -17.158989 179.949968
-24.877351 8.767528 -0.006724 0.000000 0.000000 13.370664 0.000000 54.423157 -2.285583 0.000000 0.000000 0.000000 0.000000 14.530937 0.465397 0.000000 0.000000 0.000000 0.000000 -45.582824 171.450730 0.000000 -23.508711 0.061645 0.000000 0.000000 0.000000 0.000000 -49.680480 -169.283331 0.000000 -40.112928 -2.381706 0.000000 0.000000 0.000000 0.000000 -47.481893 -179.670639 0.000000 -12.641177 179.907319 0.000000 0.000000 0.000000 0.000000 -60.045137 -179.768409 0.000000 -17.766227 179.925444
-24.577606 9.618989 -0.002736 0.000000 0.000000 12.647732 0.000000 50.227767 -0.388112 0.000000 0.000000 0.000000 0.000000 14.686552 0.479208 0.000000 0.000000 0.000000 0.000000 -40.179821 172.927802 0.000000 -26.763178 0.704684 0.000000 0.000000 0.000000 0.000000 -45.181818 -170.274453 0.000000 -38.904929 -4.378212 0.000000 0.000000 0.000000 0.000000 -49.914950 -179.071610 0.000000 -14.567098 179.917584 0.000000 0.000000 0.000000 0.000000 -49.261456 179.580825 0.000000 -15.443861 179.978171
